<svg width="24" height="25" viewBox="0 0 24 25" fill="none" xmlns="http://www.w3.org/2000/svg">
<path fill-rule="evenodd" clip-rule="evenodd" d="M19.75 12.5C19.75 12.0858 19.4142 11.75 19 11.75H5C4.58579 11.75 4.25 12.0858 4.25 12.5C4.25 12.9142 4.58579 13.25 5 13.25H19C19.4142 13.25 19.75 12.9142 19.75 12.5Z" fill="#0B0B0C"/>
<path fill-rule="evenodd" clip-rule="evenodd" d="M19.75 7.5C19.75 7.08579 19.4142 6.75 19 6.75H5C4.58579 6.75 4.25 7.08579 4.25 7.5C4.25 7.91421 4.58579 8.25 5 8.25H19C19.4142 8.25 19.75 7.91421 19.75 7.5Z" fill="#0B0B0C"/>
<path fill-rule="evenodd" clip-rule="evenodd" d="M19.75 17.5C19.75 17.0858 19.4142 16.75 19 16.75H5C4.58579 16.75 4.25 17.0858 4.25 17.5C4.25 17.9142 4.58579 18.25 5 18.25H19C19.4142 18.25 19.75 17.9142 19.75 17.5Z" fill="#0B0B0C"/>
</svg>
