<svg width="38" height="38" viewBox="0 0 38 38" fill="none" xmlns="http://www.w3.org/2000/svg">
<path fill-rule="evenodd" clip-rule="evenodd" d="M7.08798 16.5951C10.1629 23.2922 15.6339 28.617 22.4359 31.5043L23.6357 32.0389C26.2023 33.1824 29.2192 32.3702 30.8648 30.0927L32.8825 27.3001C33.7453 26.1061 33.5229 24.4457 32.3764 23.5208L28.8539 20.679C27.6281 19.6901 25.8257 19.9205 24.888 21.1858L24.1024 22.2459C20.6279 20.4552 17.79 17.6173 15.9994 14.1428L17.0594 13.3573C18.3247 12.4196 18.5551 10.6171 17.5662 9.39132L14.724 5.86834C13.7994 4.72217 12.1397 4.49955 10.9457 5.36153L8.13795 7.38844C5.84531 9.04352 5.03792 12.0858 6.20817 14.6599L7.08613 16.5911L7.08798 16.5951ZM23.3731 29.322C17.113 26.6674 12.0772 21.7683 9.24729 15.6062L9.24635 15.6041L8.37023 13.6769C7.66808 12.1325 8.15251 10.3071 9.52809 9.31409L12.3358 7.28717C12.5064 7.16404 12.7435 7.19584 12.8756 7.35958L15.7177 10.8826C15.859 11.0577 15.8261 11.3152 15.6453 11.4491L13.7954 12.8201C13.3461 13.153 13.19 13.7543 13.4206 14.2637C15.539 18.9447 19.3005 22.7063 23.9815 24.8247C24.4909 25.0552 25.0922 24.8991 25.4251 24.4498L26.7961 22.5999C26.9301 22.4191 27.1876 22.3862 27.3627 22.5275L30.8852 25.3692C31.049 25.5014 31.0807 25.7386 30.9575 25.9091L28.9397 28.7017C27.9523 30.0683 26.1422 30.5556 24.6022 29.8695L23.3929 29.3304L23.3731 29.322Z" fill="#2DA5D9"/>
<path d="M21.771 14.2502C21.771 14.5652 21.8961 14.8672 22.1188 15.0899C22.3415 15.3126 22.6436 15.4377 22.9585 15.4377H29.0202C29.676 15.4377 30.2077 14.9061 30.2077 14.2502C30.2077 13.5944 29.676 13.0627 29.0202 13.0627H25.8254L30.8272 8.06097C31.2909 7.59722 31.2909 6.84533 30.8272 6.38159C30.3634 5.91784 29.6115 5.91784 29.1478 6.38159L24.146 11.3834V8.18855C24.146 7.53272 23.6144 7.00106 22.9585 7.00105C22.3027 7.00105 21.771 7.53272 21.771 8.18855V14.2502Z" fill="#2DA5D9"/>
</svg>
