<svg width="24" height="24" viewBox="0 0 24 24" fill="none" xmlns="http://www.w3.org/2000/svg">
<path fill-rule="evenodd" clip-rule="evenodd" d="M2.80403 8.35342C2.52389 10.9563 2.53637 13.9583 2.9262 16.5506C3.1419 17.985 4.31257 19.0847 5.75763 19.2103L7.26787 19.3416C10.4169 19.6153 13.5838 19.6153 16.7328 19.3416L18.2431 19.2103C19.6881 19.0847 20.8588 17.985 21.0745 16.5506C21.4643 13.9583 21.4768 10.9565 21.1967 8.35357C21.1605 8.05181 21.1197 7.75046 21.0745 7.44961C20.8588 6.01522 19.6881 4.91557 18.2431 4.78996L16.7328 4.65867C13.5838 4.38493 10.4169 4.38493 7.26787 4.65867L5.75763 4.78996C4.31257 4.91557 3.1419 6.01522 2.9262 7.44961C2.88096 7.75041 2.84024 8.05171 2.80403 8.35342ZM7.39777 6.15304C10.4604 5.88681 13.5403 5.88681 16.6029 6.15304L18.1131 6.28432C18.8675 6.34989 19.4786 6.92391 19.5912 7.67267C19.6029 7.75042 19.6142 7.82822 19.6253 7.90604L14.0643 10.9955C12.7807 11.7086 11.2199 11.7086 9.93632 10.9955L4.37539 7.90608C4.38645 7.82824 4.39783 7.75043 4.40952 7.67267C4.52211 6.92391 5.13321 6.34989 5.88754 6.28432L7.39777 6.15304ZM19.8088 9.52001C20.0028 11.7878 19.9303 14.0726 19.5912 16.3276C19.4786 17.0763 18.8675 17.6503 18.1132 17.7159L16.6029 17.8472C13.5403 18.1134 10.4604 18.1134 7.39777 17.8472L5.88754 17.7159C5.13321 17.6503 4.52211 17.0763 4.40952 16.3276C4.07043 14.0726 3.99787 11.7878 4.19184 9.52005L9.20786 12.3067C10.9445 13.2715 13.0561 13.2715 14.7928 12.3067L19.8088 9.52001Z" fill="#2DA5D9"/>
</svg>
