<svg width="24" height="24" viewBox="0 0 24 24" fill="none" xmlns="http://www.w3.org/2000/svg">
<path d="M11.9997 8.74956C10.2048 8.74956 8.74969 10.2046 8.74969 11.9996C8.74969 13.7945 10.2048 15.2496 11.9997 15.2496C13.7946 15.2496 15.2497 13.7945 15.2497 11.9996C15.2497 10.2046 13.7946 8.74956 11.9997 8.74956Z" fill="white"/>
<path fill-rule="evenodd" clip-rule="evenodd" d="M6.76923 3.08103C10.2174 2.69565 13.7821 2.69565 17.2302 3.08103C19.1286 3.2932 20.6598 4.78898 20.8826 6.69403C21.2949 10.219 21.2949 13.7801 20.8826 17.3051C20.6598 19.2101 19.1286 20.7059 17.2302 20.9181C13.7821 21.3035 10.2174 21.3035 6.76923 20.9181C4.87083 20.7059 3.33964 19.2101 3.11683 17.3051C2.70455 13.7801 2.70455 10.219 3.11683 6.69403C3.33964 4.78898 4.87083 3.2932 6.76923 3.08103ZM16.9997 5.99956C16.4474 5.99956 15.9997 6.44727 15.9997 6.99956C15.9997 7.55184 16.4474 7.99956 16.9997 7.99956C17.552 7.99956 17.9997 7.55184 17.9997 6.99956C17.9997 6.44727 17.552 5.99956 16.9997 5.99956ZM7.24969 11.9996C7.24969 9.3762 9.37634 7.24956 11.9997 7.24956C14.623 7.24956 16.7497 9.3762 16.7497 11.9996C16.7497 14.6229 14.623 16.7496 11.9997 16.7496C9.37634 16.7496 7.24969 14.6229 7.24969 11.9996Z" fill="white"/>
</svg>
