<svg width="24" height="24" viewBox="0 0 24 24" fill="none" xmlns="http://www.w3.org/2000/svg">
<path d="M15.9997 7.00005C15.9997 6.44776 16.4474 6.00005 16.9997 6.00005C17.552 6.00005 17.9997 6.44776 17.9997 7.00005C17.9997 7.55233 17.552 8.00005 16.9997 8.00005C16.4474 8.00005 15.9997 7.55233 15.9997 7.00005Z" fill="#2DA5D9"/>
<path fill-rule="evenodd" clip-rule="evenodd" d="M11.9997 7.25005C9.37634 7.25005 7.24969 9.37669 7.24969 12C7.24969 14.6234 9.37634 16.75 11.9997 16.75C14.623 16.75 16.7497 14.6234 16.7497 12C16.7497 9.37669 14.623 7.25005 11.9997 7.25005ZM8.74969 12C8.74969 10.2051 10.2048 8.75005 11.9997 8.75005C13.7946 8.75005 15.2497 10.2051 15.2497 12C15.2497 13.795 13.7946 15.25 11.9997 15.25C10.2048 15.25 8.74969 13.795 8.74969 12Z" fill="#2DA5D9"/>
<path fill-rule="evenodd" clip-rule="evenodd" d="M17.2579 2.83306C13.7914 2.44562 10.208 2.44562 6.74146 2.83306C4.72941 3.05794 3.10507 4.64295 2.86852 6.66548C2.45398 10.2098 2.45398 13.7903 2.86852 17.3346C3.10507 19.3571 4.72941 20.9422 6.74146 21.167C10.208 21.5545 13.7914 21.5545 17.2579 21.167C19.27 20.9422 20.8943 19.3571 21.1309 17.3346C21.5454 13.7903 21.5454 10.2098 21.1309 6.66548C20.8943 4.64295 19.27 3.05794 17.2579 2.83306ZM6.90807 4.32378C10.2639 3.94871 13.7355 3.94871 17.0913 4.32378C18.4214 4.47244 19.4869 5.52205 19.641 6.83973C20.042 10.2683 20.042 13.7318 19.641 17.1604C19.4869 18.478 18.4214 19.5277 17.0913 19.6763C13.7355 20.0514 10.2639 20.0514 6.90807 19.6763C5.57797 19.5277 4.51248 18.478 4.35837 17.1604C3.95737 13.7318 3.95737 10.2683 4.35837 6.83973C4.51248 5.52205 5.57797 4.47244 6.90807 4.32378Z" fill="#2DA5D9"/>
</svg>
